<svg width="172" height="68" viewBox="0 0 172 68" fill="none" xmlns="http://www.w3.org/2000/svg">
<path d="M34 0H17V17H0V34H17V51H0V68H17V51H34V34H17V17H34V0Z" fill="currentColor"/>
<path fill-rule="evenodd" clip-rule="evenodd" d="M81.0014 13.5872H84.5076V19.911C84.9668 19.5562 85.4677 19.2744 86.0103 19.0657C86.553 18.857 87.113 18.7526 87.6904 18.7526C88.4 18.7526 89.0505 18.8848 89.6418 19.1492C90.2331 19.4136 90.741 19.7857 91.1654 20.2658C91.5967 20.7458 91.9306 21.3232 92.1671 21.998C92.4037 22.6659 92.5219 23.4068 92.5219 24.2207C92.5219 25.0903 92.3898 25.8799 92.1254 26.5895C91.861 27.2922 91.4923 27.8974 91.0193 28.4053C90.5531 28.9131 89.9966 29.3062 89.3496 29.5845C88.7026 29.8558 87.993 29.9914 87.2208 29.9914C86.6851 29.9914 86.1808 29.9149 85.7077 29.7619C85.2416 29.6018 84.8416 29.3966 84.5076 29.1462V29.8245H82.5667V15.3821H81.0014V13.5872ZM87.1791 20.464C86.6712 20.464 86.1842 20.5684 85.7181 20.7771C85.252 20.9858 84.8485 21.2675 84.5076 21.6223V27.4348C84.7303 27.6644 85.0572 27.8696 85.4886 28.0505C85.9199 28.2244 86.4625 28.3114 87.1165 28.3114C87.5617 28.3114 87.9895 28.2279 88.4 28.0609C88.8105 27.8939 89.1722 27.6435 89.4853 27.3096C89.7983 26.9687 90.0488 26.5478 90.2366 26.0469C90.4244 25.546 90.5184 24.9616 90.5184 24.2938C90.5184 23.6816 90.4279 23.1389 90.247 22.6659C90.0731 22.1928 89.8331 21.7928 89.527 21.4658C89.2279 21.1388 88.8765 20.8919 88.4731 20.7249C88.0696 20.551 87.6382 20.464 87.1791 20.464Z" fill="currentColor"/>
<path d="M64.7746 16.9265C64.9972 17.2326 65.1085 17.6917 65.1085 18.3039H67.6651V16.5091H66.8825C66.6807 16.1056 66.4303 15.7369 66.1311 15.4029C65.839 15.062 65.4981 14.7733 65.1085 14.5368C64.7259 14.2933 64.2945 14.1055 63.8145 13.9733C63.3414 13.8411 62.8232 13.775 62.2597 13.775C61.404 13.775 60.6422 13.8898 59.9743 14.1194C59.3134 14.342 58.7534 14.6516 58.2943 15.0481C57.8351 15.4447 57.4873 15.9073 57.2507 16.436C57.0142 16.9647 56.8959 17.5317 56.8959 18.137C56.8959 18.7353 56.9759 19.264 57.1359 19.7231C57.2959 20.1753 57.522 20.5719 57.8142 20.9127C58.1134 21.2536 58.4682 21.5423 58.8786 21.7789C59.296 22.0154 59.7552 22.2102 60.2561 22.3633L62.5414 23.0102C62.8475 23.1076 63.164 23.2224 63.491 23.3546C63.8249 23.4868 64.1311 23.6572 64.4093 23.8659C64.6876 24.0746 64.9137 24.3286 65.0876 24.6277C65.2685 24.9199 65.3589 25.2782 65.3589 25.7025C65.3589 26.0852 65.2859 26.4295 65.1398 26.7356C65.0007 27.0348 64.7954 27.2922 64.5241 27.5078C64.2598 27.7165 63.9363 27.8765 63.5536 27.9879C63.178 28.0992 62.7536 28.1548 62.2805 28.1548C61.7935 28.1548 61.3483 28.1026 60.9448 27.9983C60.5413 27.887 60.1935 27.727 59.9013 27.5183C59.6091 27.3026 59.3795 27.0348 59.2126 26.7148C59.0526 26.3947 58.9725 25.8486 58.9725 25.0764H56.3429V26.8713H57.1359C57.2681 27.2887 57.4525 27.6957 57.689 28.0922C57.9255 28.4888 58.2386 28.8436 58.6282 29.1566C59.0247 29.4627 59.5117 29.7062 60.0891 29.8871C60.6665 30.0749 61.3622 30.1688 62.1762 30.1688C62.9693 30.1688 63.6963 30.054 64.3571 29.8245C65.025 29.5879 65.5989 29.2644 66.079 28.854C66.559 28.4435 66.9312 27.96 67.1955 27.4035C67.4669 26.8469 67.6025 26.2417 67.6025 25.5877C67.6025 24.9825 67.5156 24.4503 67.3416 23.9912C67.1747 23.532 66.9277 23.1285 66.6007 22.7807C66.2738 22.4259 65.8668 22.1198 65.3798 21.8624C64.8998 21.605 64.3432 21.3754 63.7102 21.1736L61.6022 20.4849C61.324 20.3875 61.0318 20.2901 60.7257 20.1927C60.4265 20.0953 60.1517 19.9631 59.9013 19.7962C59.6508 19.6223 59.4421 19.3962 59.2752 19.1179C59.1152 18.8327 59.0352 18.4605 59.0352 18.0013C59.0352 17.6952 59.1012 17.403 59.2334 17.1247C59.3656 16.8465 59.5604 16.603 59.8178 16.3943C60.0822 16.1856 60.4126 16.0221 60.8092 15.9038C61.2057 15.7786 61.6683 15.716 62.197 15.716C62.5171 15.716 62.8371 15.7612 63.1571 15.8516C63.4771 15.9351 63.7693 16.0604 64.0337 16.2273C64.305 16.3873 64.5519 16.6204 64.7746 16.9265Z" fill="currentColor"/>
<path fill-rule="evenodd" clip-rule="evenodd" d="M71.0775 25.5147C71.0357 25.2573 71.0148 24.9755 71.0148 24.6694H78.7996C78.7996 24.412 78.7926 24.1477 78.7787 23.8764C78.7717 23.605 78.7509 23.3372 78.7161 23.0729C78.6465 22.5302 78.5213 21.998 78.3404 21.4763C78.1665 20.9545 77.9056 20.4919 77.5578 20.0884C77.2169 19.6779 76.7716 19.3509 76.222 19.1074C75.6794 18.857 75.0011 18.7318 74.1872 18.7318C73.3454 18.7318 72.608 18.8814 71.9749 19.1805C71.3418 19.4796 70.8096 19.8866 70.3783 20.4014C69.9539 20.9093 69.6339 21.5076 69.4183 22.1963C69.2026 22.8781 69.0948 23.605 69.0948 24.3773C69.0948 25.3303 69.22 26.1652 69.4704 26.8817C69.7278 27.5983 70.0791 28.1966 70.5244 28.6766C70.9766 29.1566 71.5123 29.5184 72.1314 29.7619C72.7575 30.0053 73.4358 30.1271 74.1663 30.1271C74.9385 30.1271 75.6829 30.0088 76.3994 29.7723C77.116 29.5358 77.8291 29.174 78.5387 28.687L77.756 27.3617C77.1717 27.6957 76.6116 27.9426 76.076 28.1026C75.5472 28.2557 75.0011 28.3322 74.4376 28.3322C73.7211 28.3322 73.0776 28.1583 72.5071 27.8105C71.9436 27.4557 71.5331 26.9304 71.2757 26.2347C71.1923 26.0052 71.1262 25.7651 71.0775 25.5147ZM72.8619 20.558C73.2028 20.4258 73.5993 20.3597 74.0515 20.3597C74.5315 20.3597 74.935 20.4293 75.262 20.5684C75.589 20.7075 75.8568 20.9023 76.0655 21.1528C76.2742 21.4032 76.4273 21.6989 76.5247 22.0398C76.629 22.3806 76.6951 22.7528 76.7229 23.1563H71.1192C71.1888 22.725 71.2931 22.3354 71.4323 21.9876C71.5784 21.6397 71.7697 21.3476 72.0062 21.111C72.2427 20.8675 72.528 20.6832 72.8619 20.558Z" fill="currentColor"/>
<path fill-rule="evenodd" clip-rule="evenodd" d="M99.524 29.7619C100.025 29.5184 100.481 29.2053 100.891 28.8227V29.8245H104.032V28.0296H102.832L102.842 22.6241C102.842 21.9493 102.748 21.3719 102.561 20.8919C102.373 20.4049 102.105 20.0049 101.757 19.6918C101.409 19.3788 100.985 19.1492 100.484 19.0031C99.9832 18.85 99.4196 18.7735 98.7935 18.7735C98.4526 18.7735 98.1048 18.8048 97.75 18.8674C97.4022 18.9231 97.0578 19.0031 96.7169 19.1074C96.383 19.2048 96.063 19.3266 95.7569 19.4727C95.4508 19.6118 95.169 19.7649 94.9116 19.9318L95.5482 21.278C95.7012 21.1736 95.8856 21.0762 96.1012 20.9858C96.3239 20.8884 96.5639 20.8049 96.8213 20.7353C97.0856 20.6588 97.3674 20.5997 97.6665 20.558C97.9657 20.5093 98.2787 20.4849 98.6057 20.4849C98.9535 20.4849 99.2666 20.5301 99.5449 20.6206C99.8301 20.711 100.074 20.8501 100.275 21.038C100.477 21.2189 100.634 21.4519 100.745 21.7371C100.856 22.0154 100.912 22.3459 100.912 22.7285L100.901 23.6155C100.623 23.5598 100.314 23.5181 99.9727 23.4903C99.6318 23.4555 99.2109 23.4381 98.7101 23.4381C98.397 23.4381 98.0665 23.4624 97.7187 23.5111C97.3778 23.5529 97.0404 23.6294 96.7065 23.7407C96.3795 23.8451 96.063 23.9877 95.7569 24.1686C95.4577 24.3425 95.1934 24.5616 94.9638 24.826C94.7412 25.0834 94.5603 25.3895 94.4212 25.7443C94.289 26.0991 94.2229 26.5061 94.2229 26.9652C94.2229 27.3965 94.3098 27.8035 94.4838 28.1861C94.6646 28.5688 94.9151 28.9062 95.2351 29.1984C95.5551 29.4836 95.9343 29.7097 96.3726 29.8766C96.8178 30.0436 97.3048 30.1271 97.8335 30.1271C98.4666 30.1271 99.0301 30.0053 99.524 29.7619ZM99.0335 28.4053C98.7761 28.4679 98.5187 28.4992 98.2613 28.4992C97.9413 28.4992 97.6491 28.4644 97.3848 28.3948C97.1204 28.3183 96.8908 28.2105 96.696 28.0713C96.5082 27.9253 96.3621 27.7479 96.2578 27.5391C96.1534 27.3235 96.1012 27.073 96.1012 26.7878C96.1012 26.4817 96.1638 26.2104 96.2891 25.9739C96.4143 25.7373 96.5882 25.5391 96.8108 25.379C97.0404 25.219 97.3083 25.0973 97.6143 25.0138C97.9274 24.9303 98.2718 24.8886 98.6474 24.8886H100.901L100.891 27.3304C100.759 27.4835 100.595 27.6331 100.401 27.7792C100.206 27.9183 99.9936 28.0435 99.764 28.1548C99.5344 28.2592 99.291 28.3427 99.0335 28.4053Z" fill="currentColor"/>
<path d="M112.464 21.9145C112.464 21.6223 112.394 21.3754 112.255 21.1736C112.123 20.9649 111.949 20.798 111.733 20.6727C111.518 20.5406 111.278 20.4466 111.013 20.391C110.749 20.3284 110.491 20.2971 110.241 20.2971C109.963 20.2971 109.705 20.3284 109.469 20.391C109.239 20.4536 109.041 20.544 108.874 20.6623C108.707 20.7806 108.575 20.9267 108.477 21.1006C108.387 21.2675 108.342 21.4554 108.342 21.6641C108.342 22.0258 108.45 22.3146 108.665 22.5302C108.888 22.7389 109.257 22.9337 109.771 23.1146L111.848 23.8451C112.739 24.1442 113.389 24.5512 113.799 25.066C114.21 25.5808 114.415 26.1965 114.415 26.913C114.415 27.393 114.318 27.8348 114.123 28.2383C113.935 28.6348 113.664 28.9757 113.309 29.261C112.961 29.5392 112.54 29.7549 112.046 29.9079C111.552 30.068 111.003 30.148 110.398 30.148C109.556 30.148 108.871 30.0123 108.342 29.741C107.813 29.4697 107.406 29.1114 107.121 28.6662H106.036V26.8713H108.196C108.196 27.1704 108.258 27.4278 108.384 27.6435C108.516 27.8522 108.686 28.0226 108.895 28.1548C109.111 28.287 109.351 28.3844 109.615 28.447C109.886 28.5096 110.161 28.5409 110.439 28.5409C110.711 28.5409 110.971 28.5096 111.222 28.447C111.472 28.3774 111.692 28.28 111.879 28.1548C112.074 28.0226 112.227 27.8661 112.339 27.6852C112.45 27.5044 112.505 27.2991 112.505 27.0696C112.505 26.7217 112.391 26.426 112.161 26.1826C111.938 25.9391 111.556 25.7199 111.013 25.5251L108.947 24.7529C108.105 24.4538 107.479 24.0746 107.069 23.6155C106.665 23.1494 106.463 22.5685 106.463 21.8728C106.463 21.4136 106.547 20.9893 106.714 20.5997C106.888 20.2101 107.135 19.8762 107.455 19.5979C107.782 19.3127 108.178 19.0901 108.644 18.93C109.111 18.77 109.643 18.69 110.241 18.69C111.013 18.69 111.66 18.7979 112.182 19.0135C112.704 19.2292 113.173 19.5979 113.591 20.1197H114.603V21.9145H112.464Z" fill="currentColor"/>
<path d="M122.262 19.0135H119.727V15.5282L117.827 16.4256V19.0135H116.085V20.5893H117.807L117.775 26.5374C117.775 27.2191 117.834 27.7896 117.953 28.2487C118.071 28.7009 118.248 29.0627 118.485 29.334C118.728 29.6053 119.024 29.7966 119.372 29.9079C119.727 30.0262 120.141 30.0854 120.614 30.0854C121.115 30.0854 121.549 30.0332 121.918 29.9288C122.287 29.8314 122.638 29.6958 122.972 29.5218L122.523 28.2174C122.259 28.3427 122.015 28.4331 121.793 28.4888C121.57 28.5375 121.313 28.5618 121.021 28.5618C120.749 28.5618 120.506 28.5131 120.29 28.4157C120.075 28.3114 119.918 28.127 119.821 27.8626C119.723 27.5983 119.675 27.2539 119.675 26.8295L119.706 20.5893H122.262V19.0135Z" fill="currentColor"/>
<path d="M124.464 19.0135H127.991V28.0296H129.619V29.8245H124.485V28.0296H126.03V20.8084H124.464V19.0135Z" fill="currentColor"/>
<path d="M125.664 15.1838C125.664 15.0029 125.699 14.8325 125.769 14.6725C125.845 14.5055 125.943 14.3629 126.061 14.2446C126.186 14.1194 126.332 14.022 126.499 13.9524C126.666 13.8759 126.844 13.8376 127.031 13.8376C127.212 13.8376 127.383 13.8759 127.543 13.9524C127.71 14.022 127.852 14.1194 127.971 14.2446C128.096 14.3629 128.193 14.5055 128.263 14.6725C128.339 14.8325 128.378 15.0029 128.378 15.1838C128.378 15.3716 128.339 15.549 128.263 15.716C128.193 15.883 128.096 16.0325 127.971 16.1647C127.852 16.2899 127.71 16.3908 127.543 16.4673C127.383 16.5369 127.212 16.5717 127.031 16.5717C126.844 16.5717 126.666 16.5369 126.499 16.4673C126.332 16.3908 126.186 16.2899 126.061 16.1647C125.943 16.0325 125.845 15.883 125.769 15.716C125.699 15.549 125.664 15.3716 125.664 15.1838Z" fill="currentColor"/>
<path fill-rule="evenodd" clip-rule="evenodd" d="M136.402 29.7619C136.903 29.5184 137.359 29.2053 137.769 28.8227V29.8245H140.91V28.0296H139.71L139.721 22.6241C139.721 21.9493 139.627 21.3719 139.439 20.8919C139.251 20.4049 138.983 20.0049 138.635 19.6918C138.288 19.3788 137.863 19.1492 137.362 19.0031C136.861 18.85 136.298 18.7735 135.672 18.7735C135.331 18.7735 134.983 18.8048 134.628 18.8674C134.28 18.9231 133.936 19.0031 133.595 19.1074C133.261 19.2048 132.941 19.3266 132.635 19.4727C132.329 19.6118 132.047 19.7649 131.79 19.9318L132.426 21.278C132.579 21.1736 132.764 21.0762 132.979 20.9858C133.202 20.8884 133.442 20.8049 133.7 20.7353C133.964 20.6588 134.246 20.5997 134.545 20.558C134.844 20.5093 135.157 20.4849 135.484 20.4849C135.832 20.4849 136.145 20.5301 136.423 20.6206C136.708 20.711 136.952 20.8501 137.154 21.038C137.355 21.2189 137.512 21.4519 137.623 21.7371C137.734 22.0154 137.79 22.3459 137.79 22.7285L137.78 23.6155C137.501 23.5598 137.192 23.5181 136.851 23.4903C136.51 23.4555 136.089 23.4381 135.588 23.4381C135.275 23.4381 134.945 23.4624 134.597 23.5111C134.256 23.5529 133.919 23.6294 133.585 23.7407C133.258 23.8451 132.941 23.9877 132.635 24.1686C132.336 24.3425 132.072 24.5616 131.842 24.826C131.619 25.0834 131.439 25.3895 131.299 25.7443C131.167 26.0991 131.101 26.5061 131.101 26.9652C131.101 27.3965 131.188 27.8035 131.362 28.1861C131.543 28.5688 131.793 28.9062 132.113 29.1984C132.433 29.4836 132.813 29.7097 133.251 29.8766C133.696 30.0436 134.183 30.1271 134.712 30.1271C135.345 30.1271 135.908 30.0053 136.402 29.7619ZM135.912 28.4053C135.654 28.4679 135.397 28.4992 135.14 28.4992C134.82 28.4992 134.527 28.4644 134.263 28.3948C133.999 28.3183 133.769 28.2105 133.574 28.0713C133.386 27.9253 133.24 27.7479 133.136 27.5391C133.032 27.3235 132.979 27.073 132.979 26.7878C132.979 26.4817 133.042 26.2104 133.167 25.9739C133.293 25.7373 133.466 25.5391 133.689 25.379C133.919 25.219 134.186 25.0973 134.493 25.0138C134.806 24.9303 135.15 24.8886 135.526 24.8886H137.78L137.769 27.3304C137.637 27.4835 137.474 27.6331 137.279 27.7792C137.084 27.9183 136.872 28.0435 136.642 28.1548C136.413 28.2592 136.169 28.3427 135.912 28.4053Z" fill="currentColor"/>
<path d="M150.219 28.0296H151.742V23.0937C151.742 22.2659 151.53 21.6397 151.106 21.2154C150.688 20.784 150.086 20.5684 149.3 20.5684C148.848 20.5684 148.392 20.6762 147.933 20.8919C147.474 21.1075 147.039 21.3754 146.629 21.6954V28.0296H148.152V29.8245H143.102V28.0296H144.604V20.8084H143.102V19.0135H146.545V20.2866H146.566C146.796 20.0849 147.039 19.8936 147.297 19.7127C147.561 19.5318 147.836 19.3753 148.121 19.2431C148.406 19.1109 148.702 19.0066 149.008 18.93C149.321 18.8535 149.648 18.8153 149.989 18.8153C150.566 18.8153 151.088 18.8953 151.554 19.0553C152.02 19.2153 152.417 19.4588 152.744 19.7857C153.071 20.1127 153.321 20.5336 153.495 21.0484C153.676 21.5563 153.767 22.158 153.767 22.8537V28.0296H155.269V29.8245H150.219V28.0296Z" fill="currentColor"/>
<path d="M68.6252 38.2903H57.2925V40.0956H58.7951V52.3153H57.2925V54.1102H62.4266V52.3153H60.8405V46.9307H66.2772V45.1776H60.8405V40.0956H66.4859V42.767H68.6252V38.2903Z" fill="currentColor"/>
<path d="M77.5995 45.5846H75.6168V44.9167C75.3872 44.9167 75.1507 44.9619 74.9072 45.0524C74.6707 45.1358 74.448 45.268 74.2393 45.4489C74.0306 45.6228 73.8463 45.8489 73.6863 46.1272C73.5332 46.3985 73.4219 46.722 73.3523 47.0977V52.3153H75.1889V54.1102H69.8252V52.3153H71.3175L71.3279 45.0941H69.8252V43.2992H73.2793V44.7915C73.4045 44.5689 73.5437 44.3636 73.6967 44.1758C73.8567 43.981 74.0306 43.8141 74.2185 43.6749C74.4133 43.5288 74.6255 43.4175 74.855 43.341C75.0916 43.2575 75.3455 43.2158 75.6168 43.2158H76.6395C76.9595 43.2158 77.2795 43.2227 77.5995 43.2366V45.5846Z" fill="currentColor"/>
<path d="M83.2867 43.2992H79.7596V45.0941H81.3249V52.3153H79.7805V54.1102H84.9146V52.3153H83.2867V43.2992Z" fill="currentColor"/>
<path d="M81.064 38.9582C80.9944 39.1182 80.9597 39.2886 80.9597 39.4695C80.9597 39.6573 80.9944 39.8347 81.064 40.0017C81.1405 40.1687 81.2379 40.3182 81.3562 40.4504C81.4814 40.5756 81.6275 40.6765 81.7945 40.753C81.9614 40.8226 82.1388 40.8574 82.3267 40.8574C82.5076 40.8574 82.678 40.8226 82.838 40.753C83.005 40.6765 83.1476 40.5756 83.2659 40.4504C83.3911 40.3182 83.4885 40.1687 83.558 40.0017C83.6346 39.8347 83.6728 39.6573 83.6728 39.4695C83.6728 39.2886 83.6346 39.1182 83.558 38.9582C83.4885 38.7912 83.3911 38.6486 83.2659 38.5303C83.1476 38.4051 83.005 38.3077 82.838 38.2381C82.678 38.1616 82.5076 38.1233 82.3267 38.1233C82.1388 38.1233 81.9614 38.1616 81.7945 38.2381C81.6275 38.3077 81.4814 38.4051 81.3562 38.5303C81.2379 38.6486 81.1405 38.7912 81.064 38.9582Z" fill="currentColor"/>
<path fill-rule="evenodd" clip-rule="evenodd" d="M88.5461 48.9552C88.5461 49.2613 88.567 49.543 88.6087 49.8004C88.6574 50.0509 88.7235 50.2909 88.807 50.5205C89.0644 51.2161 89.4748 51.7414 90.0383 52.0962C90.6088 52.444 91.2523 52.6179 91.9689 52.6179C92.5324 52.6179 93.0785 52.5414 93.6072 52.3884C94.1429 52.2284 94.7029 51.9814 95.2873 51.6475L96.0699 52.9727C95.3603 53.4597 94.6473 53.8215 93.9307 54.058C93.2141 54.2945 92.4698 54.4128 91.6976 54.4128C90.9671 54.4128 90.2888 54.2911 89.6627 54.0476C89.0435 53.8041 88.5078 53.4423 88.0556 52.9623C87.6104 52.4823 87.2591 51.884 87.0017 51.1674C86.7512 50.4509 86.626 49.6161 86.626 48.663C86.626 47.8908 86.7338 47.1638 86.9495 46.482C87.1652 45.7933 87.4852 45.195 87.9095 44.6871C88.3409 44.1723 88.8731 43.7654 89.5061 43.4662C90.1392 43.1671 90.8766 43.0175 91.7184 43.0175C92.5324 43.0175 93.2107 43.1427 93.7533 43.3932C94.3029 43.6367 94.7481 43.9636 95.089 44.3741C95.4369 44.7776 95.6977 45.2402 95.8717 45.762C96.0525 46.2837 96.1778 46.8159 96.2473 47.3586C96.2821 47.6229 96.303 47.8908 96.3099 48.1621C96.3238 48.4334 96.3308 48.6978 96.3308 48.9552H88.5461ZM91.5828 44.6454C91.1306 44.6454 90.734 44.7115 90.3931 44.8437C90.0592 44.9689 89.774 45.1532 89.5374 45.3967C89.3009 45.6333 89.1096 45.9255 88.9635 46.2733C88.8244 46.6211 88.72 47.0107 88.6505 47.442H94.2542C94.2264 47.0386 94.1603 46.6664 94.0559 46.3255C93.9585 45.9846 93.8055 45.6889 93.5968 45.4385C93.3881 45.188 93.1202 44.9932 92.7933 44.8541C92.4663 44.715 92.0628 44.6454 91.5828 44.6454Z" fill="currentColor"/>
<path fill-rule="evenodd" clip-rule="evenodd" d="M108.77 37.8729H105.357V39.6678H106.829V43.8106C106.432 43.5253 106.018 43.3271 105.587 43.2158C105.156 43.0975 104.679 43.0384 104.157 43.0384C103.364 43.0384 102.644 43.174 101.997 43.4453C101.35 43.7097 100.797 44.0854 100.338 44.5723C99.8788 45.0524 99.524 45.6367 99.2736 46.3255C99.0231 47.0072 98.8979 47.7655 98.8979 48.6004C98.8979 49.5187 99.0266 50.3361 99.284 51.0527C99.5483 51.7622 99.9101 52.364 100.369 52.8579C100.835 53.3449 101.381 53.7171 102.008 53.9745C102.641 54.225 103.322 54.3502 104.053 54.3502C104.637 54.3502 105.159 54.2528 105.618 54.058C106.077 53.8563 106.481 53.578 106.829 53.2232V54.1102H110.356V52.3153H108.77V37.8729ZM105.754 52.4092C105.364 52.5762 104.881 52.6597 104.303 52.6597C103.809 52.6597 103.354 52.5727 102.936 52.3988C102.519 52.2249 102.161 51.9675 101.862 51.6266C101.562 51.2787 101.329 50.8509 101.162 50.3431C100.995 49.8352 100.912 49.2473 100.912 48.5795C100.912 47.9673 100.999 47.4247 101.173 46.9516C101.347 46.4785 101.583 46.0785 101.882 45.7515C102.188 45.4246 102.543 45.1776 102.947 45.0106C103.35 44.8367 103.782 44.7497 104.241 44.7497C104.714 44.7497 105.176 44.8158 105.629 44.948C106.081 45.0802 106.481 45.2924 106.829 45.5846V51.637C106.502 51.9779 106.143 52.2353 105.754 52.4092Z" fill="currentColor"/>
<path d="M112.213 43.2992H115.657V44.5619H115.678C115.914 44.3602 116.161 44.1723 116.419 43.9984C116.683 43.8175 116.958 43.661 117.243 43.5288C117.528 43.3966 117.824 43.2923 118.13 43.2158C118.443 43.1392 118.767 43.101 119.101 43.101C119.88 43.101 120.551 43.2471 121.115 43.5393C121.678 43.8245 122.113 44.2732 122.419 44.8854C122.683 44.6489 122.962 44.4228 123.254 44.2071C123.546 43.9845 123.849 43.7932 124.162 43.6332C124.482 43.4732 124.816 43.3445 125.163 43.2471C125.511 43.1497 125.873 43.101 126.249 43.101C126.833 43.101 127.358 43.181 127.824 43.341C128.291 43.501 128.687 43.7445 129.014 44.0715C129.341 44.3984 129.588 44.8193 129.755 45.3341C129.929 45.842 130.016 46.4437 130.016 47.1394V52.3153H131.519V54.1102H126.468V52.3153H127.991V47.3794C127.991 46.5516 127.783 45.9254 127.365 45.5011C126.948 45.0698 126.346 44.8541 125.56 44.8541C125.094 44.8541 124.617 44.9654 124.13 45.188C123.643 45.4106 123.226 45.6924 122.878 46.0333V52.3153H124.37V54.1102H119.33V52.3153H120.854V47.3794C120.854 46.5516 120.642 45.9254 120.217 45.5011C119.8 45.0698 119.198 44.8541 118.412 44.8541C117.96 44.8541 117.504 44.9619 117.045 45.1776C116.586 45.3932 116.151 45.6611 115.74 45.9811V52.3153H117.264V54.1102H112.213V52.3153H113.716V45.0941H112.213V43.2992Z" fill="currentColor"/>
<path fill-rule="evenodd" clip-rule="evenodd" d="M138.594 54.0476C139.095 53.8041 139.55 53.491 139.961 53.1084V54.1102H143.102V52.3153H141.902L141.912 46.9098C141.912 46.235 141.818 45.6576 141.63 45.1776C141.442 44.6906 141.175 44.2906 140.827 43.9775C140.479 43.6645 140.055 43.4349 139.554 43.2888C139.053 43.1358 138.489 43.0592 137.863 43.0592C137.522 43.0592 137.174 43.0905 136.82 43.1532C136.472 43.2088 136.127 43.2888 135.787 43.3932C135.453 43.4906 135.133 43.6123 134.827 43.7584C134.52 43.8975 134.239 44.0506 133.981 44.2175L134.618 45.5637C134.771 45.4593 134.955 45.3619 135.171 45.2715C135.393 45.1741 135.634 45.0906 135.891 45.0211C136.155 44.9445 136.437 44.8854 136.736 44.8437C137.035 44.795 137.348 44.7706 137.675 44.7706C138.023 44.7706 138.336 44.8158 138.615 44.9063C138.9 44.9967 139.143 45.1358 139.345 45.3237C139.547 45.5046 139.703 45.7376 139.815 46.0228C139.926 46.3011 139.982 46.6316 139.982 47.0142L139.971 47.9012C139.693 47.8455 139.383 47.8038 139.042 47.776C138.701 47.7412 138.281 47.7238 137.78 47.7238C137.467 47.7238 137.136 47.7481 136.788 47.7968C136.447 47.8386 136.11 47.9151 135.776 48.0264C135.449 48.1308 135.133 48.2734 134.827 48.4543C134.527 48.6282 134.263 48.8473 134.033 49.1117C133.811 49.3691 133.63 49.6752 133.491 50.03C133.359 50.3848 133.293 50.7918 133.293 51.2509C133.293 51.6822 133.379 52.0892 133.553 52.4718C133.734 52.8545 133.985 53.1919 134.305 53.4841C134.625 53.7693 135.004 53.9954 135.442 54.1624C135.887 54.3293 136.374 54.4128 136.903 54.4128C137.536 54.4128 138.1 54.2911 138.594 54.0476ZM138.103 52.691C137.846 52.7536 137.588 52.7849 137.331 52.7849C137.011 52.7849 136.719 52.7501 136.454 52.6805C136.19 52.604 135.96 52.4962 135.766 52.3571C135.578 52.211 135.432 52.0336 135.327 51.8249C135.223 51.6092 135.171 51.3587 135.171 51.0735C135.171 50.7674 135.233 50.4961 135.359 50.2596C135.484 50.023 135.658 49.8248 135.88 49.6648C136.11 49.5047 136.378 49.383 136.684 49.2995C136.997 49.216 137.341 49.1743 137.717 49.1743H139.971L139.961 51.6162C139.828 51.7692 139.665 51.9188 139.47 52.0649C139.275 52.204 139.063 52.3292 138.834 52.4405C138.604 52.5449 138.361 52.6284 138.103 52.691Z" fill="currentColor"/>
<path d="M152.41 52.3153H153.933V47.3794C153.933 46.5516 153.721 45.9254 153.297 45.5011C152.88 45.0698 152.278 44.8541 151.492 44.8541C151.039 44.8541 150.584 44.9619 150.125 45.1776C149.665 45.3932 149.231 45.6611 148.82 45.9811V52.3153H150.344V54.1102H145.293V52.3153H146.796V45.0941H145.293V43.2992H148.737V44.5723H148.758C148.987 44.3706 149.231 44.1793 149.488 43.9984C149.752 43.8175 150.027 43.661 150.312 43.5288C150.598 43.3966 150.893 43.2923 151.199 43.2158C151.513 43.1392 151.839 43.101 152.18 43.101C152.758 43.101 153.28 43.181 153.746 43.341C154.212 43.501 154.608 43.7445 154.935 44.0715C155.262 44.3984 155.513 44.8193 155.687 45.3341C155.867 45.842 155.958 46.4437 155.958 47.1394V52.3153H157.461V54.1102H152.41V52.3153Z" fill="currentColor"/>
<path d="M168.188 52.3153H166.665V54.1102H171.715V52.3153H170.213V47.1394C170.213 46.4437 170.122 45.842 169.941 45.3341C169.767 44.8193 169.517 44.3984 169.19 44.0715C168.863 43.7445 168.466 43.501 168 43.341C167.534 43.181 167.012 43.101 166.435 43.101C166.094 43.101 165.767 43.1392 165.454 43.2158C165.148 43.2923 164.852 43.3966 164.567 43.5288C164.282 43.661 164.007 43.8175 163.743 43.9984C163.485 44.1793 163.242 44.3706 163.012 44.5723H162.991V43.2992H159.548V45.0941H161.05V52.3153H159.548V54.1102H164.598V52.3153H163.075V45.9811C163.485 45.6611 163.92 45.3932 164.379 45.1776C164.838 44.9619 165.294 44.8541 165.746 44.8541C166.532 44.8541 167.134 45.0698 167.552 45.5011C167.976 45.9254 168.188 46.5516 168.188 47.3794V52.3153Z" fill="currentColor"/>
</svg>
